<?xml version="1.0" encoding="UTF-8" standalone="no"?>
<svg
   xmlns:dc="http://purl.org/dc/elements/1.1/"
   xmlns:cc="http://creativecommons.org/ns#"
   xmlns:rdf="http://www.w3.org/1999/02/22-rdf-syntax-ns#"
   xmlns:svg="http://www.w3.org/2000/svg"
   xmlns="http://www.w3.org/2000/svg"
   version="1.1"
   id="svg2"
   viewBox="0 0 400 400"
   height="400"
   width="400">
  <defs
     id="defs4" />
  <metadata
     id="metadata7">
    <rdf:RDF>
      <cc:Work
         rdf:about="">
        <dc:format>image/svg+xml</dc:format>
        <dc:type
           rdf:resource="http://purl.org/dc/dcmitype/StillImage" />
        <dc:title></dc:title>
      </cc:Work>
    </rdf:RDF>
  </metadata>
  <g
     transform="translate(0,-652.3622)"
     id="layer1">
    <path
       id="rect3336"
       d="m 53.538105,652.36218 292.923785,0 c 29.66012,0 53.53811,23.878 53.53811,53.53811 l 0,292.92379 c 0,29.66012 -23.87799,53.53812 -53.53811,53.53812 l -292.923785,0 C 23.877995,1052.3622 0,1028.4842 0,998.82408 L 0,705.90029 c 0,-29.66011 23.877995,-53.53811 53.538105,-53.53811 z"
       style="opacity:1;fill:#03a9f4;fill-opacity:1;stroke:none;stroke-width:12.81700039;stroke-miterlimit:4;stroke-dasharray:none;stroke-opacity:1" />
    <g
       id="text3338"
       style="font-style:normal;font-weight:normal;font-size:319.24627686px;line-height:125%;font-family:sans-serif;letter-spacing:0px;word-spacing:0px;fill:#ffab00;fill-opacity:1;stroke:none;stroke-width:1px;stroke-linecap:butt;stroke-linejoin:miter;stroke-opacity:1"
       transform="scale(1.0009512,0.9990497)">
      <path
         id="path4143"
         style="font-style:normal;font-variant:normal;font-weight:normal;font-stretch:normal;font-family:'Indie Flower';-inkscape-font-specification:'Indie Flower';fill:#ffab00;fill-opacity:1"
         d="m 31.969591,863.40921 q 0,-12.47056 4.052931,-25.87641 4.052931,-13.71761 11.223502,-27.12346 7.170571,-13.40585 16.835253,-25.56464 9.976446,-12.1588 21.823476,-21.51172 11.84703,-9.35291 24.941117,-14.96466 13.09408,-5.29999 26.18817,-5.29999 7.48233,0 11.2235,5.61175 3.74117,5.61175 3.74117,12.47056 0,4.05293 -1.55882,9.35292 -1.55882,5.29998 -4.67646,10.59997 -3.11764,4.98822 -7.17057,8.72939 -3.74117,3.4294 -8.41763,3.4294 0,-3.11764 0.93529,-5.92351 0.9353,-3.11764 2.49412,-5.61175 1.55882,-2.80588 2.49411,-5.61175 0.93529,-2.80588 0.93529,-6.23528 0,-4.3647 -3.74117,-4.98823 -3.4294,-0.93529 -6.8588,-0.93529 -0.62353,0 -2.49412,0 -1.24705,0 -1.87058,0 -14.34114,5.61175 -28.058755,14.96467 -13.717613,9.04116 -24.317587,21.19995 -10.599974,11.84703 -16.835253,26.49994 -6.235279,14.34114 -6.235279,30.86463 0,10.59997 1.870584,23.38229 2.182347,12.47056 7.17057,23.3823 4.988223,10.59997 13.40585,17.77054 8.72939,7.17057 21.511712,7.17057 10.599978,0 20.888188,-1.87058 10.59997,-2.18235 20.88818,-4.3647 10.59997,-2.49411 20.88818,-4.36469 10.59998,-1.87059 21.19995,-1.87059 2.49411,0 4.98823,0.62353 2.49411,0.62353 2.49411,3.74117 0,1.55882 -1.87059,4.05293 -1.87058,2.18235 -4.67646,4.3647 -2.80587,2.18234 -5.29998,3.4294 -2.49411,1.24706 -3.11764,1.55882 l -72.017473,15.27643 q -0.623528,0 -2.805875,0 -1.870584,0.31177 -3.11764,0.31177 -10.28821,0 -18.705836,-4.05294 -8.105863,-4.36469 -14.652906,-10.91173 -6.235279,-6.85881 -10.911738,-15.5882 -4.364695,-9.04115 -7.482334,-18.70584 -2.805876,-9.66468 -4.052932,-19.32936 -1.247055,-9.66468 -1.247055,-18.08231 z" />
      <path
         id="path4145"
         style="font-style:normal;font-variant:normal;font-weight:normal;font-stretch:normal;font-family:'Indie Flower';-inkscape-font-specification:'Indie Flower';fill:#ffab00;fill-opacity:1"
         d="m 252.3867,880.55623 q 2.18234,14.02937 4.98822,25.8764 3.11764,11.53527 4.67646,20.26466 1.55882,8.72939 0.93529,14.02938 -0.62353,5.29998 -6.23528,6.54704 -0.62353,1.87058 -2.49411,-2.18235 -1.87058,-4.05293 -4.3647,-12.15879 -2.49411,-8.41763 -5.29998,-19.95289 -2.80588,-11.53527 -5.61175,-24.31759 -2.49412,-13.09409 -4.67646,-26.8117 -2.18235,-13.71761 -3.74117,-26.18817 -1.24706,-12.47056 -1.24706,-22.75877 0,-10.28821 1.87059,-17.14702 3.74116,-2.80587 6.54704,-1.24705 3.11764,1.24705 4.67646,4.36469 1.87058,3.11764 2.49411,7.17057 0,4.05294 -0.62353,7.48234 0.31177,1.24706 0.93529,4.67646 0.9353,3.4294 1.87059,7.48233 0.93529,3.74117 1.87058,7.17057 0.93529,3.42941 1.55882,4.67646 4.3647,-0.62352 12.78232,-1.55882 8.72939,-1.24705 18.70584,-3.11764 9.97645,-2.18234 20.26466,-4.98822 10.59997,-2.80587 19.0176,-6.54704 8.41762,-3.74117 13.71761,-8.72939 5.61175,-4.98823 5.61175,-11.2235 0,-0.62353 -0.31176,-1.55882 l 0,-0.9353 q -8.72939,-9.97644 -17.77055,-16.21172 -9.04115,-6.23528 -19.32936,-9.04116 -9.97645,-3.11763 -21.19995,-4.05293 -11.2235,-0.93529 -24.00582,-0.93529 -9.35292,0 -19.64113,0.31177 -10.28821,0 -19.0176,2.49411 -8.41763,2.49411 -14.02938,9.04115 -5.61175,6.54704 -5.61175,19.0176 -2.80588,0 -4.98822,-1.87058 -2.18235,-1.87059 -3.74117,-4.3647 -1.55882,-2.80587 -2.49411,-5.61175 -0.93529,-3.11764 -0.93529,-5.29998 0,-4.3647 1.87058,-8.10587 1.87058,-4.05293 4.98822,-7.17057 3.11764,-3.11764 6.85881,-5.61175 3.74117,-2.80587 7.48233,-4.67646 9.97645,-1.87058 17.45878,-3.11764 7.7941,-1.24705 14.65291,-1.87058 6.85881,-0.93529 13.71761,-0.93529 7.17057,-0.31177 15.89996,-0.31177 8.72939,0 18.39408,1.55882 9.66468,1.24706 19.64112,4.05293 9.97645,2.80588 18.70584,7.48234 9.04116,4.36469 15.89996,10.91174 7.17057,6.23528 11.2235,14.6529 4.05294,8.10586 4.05294,18.39407 0,9.04116 -5.61176,15.89997 -5.61175,6.8588 -14.96466,11.84703 -9.35292,4.98822 -20.88819,8.41762 -11.2235,3.42941 -22.75877,6.23528 -11.2235,2.49411 -21.19994,4.3647 -9.97645,2.49411 -16.21173,4.36469 15.5882,21.51171 30.86463,36.47638 15.27643,14.96467 28.68228,25.25288 13.40585,10.28821 24.31759,16.83525 10.91174,6.23528 17.77055,10.59998 6.8588,4.36469 8.72939,6.85881 1.87058,2.49411 -2.80588,5.61175 -3.4294,4.36469 -11.2235,2.18234 -7.7941,-2.18234 -18.08231,-8.72939 -9.97645,-6.23528 -21.51171,-15.58819 -11.53527,-9.66469 -22.75877,-19.9529 -11.2235,-10.28821 -21.51171,-20.26465 -9.97645,-9.97645 -16.83525,-17.45878 z" />
    </g>
  </g>
</svg>
