<?xml version="1.0" encoding="UTF-8" standalone="no"?>
<svg
   xmlns:dc="http://purl.org/dc/elements/1.1/"
   xmlns:cc="http://creativecommons.org/ns#"
   xmlns:rdf="http://www.w3.org/1999/02/22-rdf-syntax-ns#"
   xmlns:svg="http://www.w3.org/2000/svg"
   xmlns="http://www.w3.org/2000/svg"
   xmlns:sodipodi="http://sodipodi.sourceforge.net/DTD/sodipodi-0.dtd"
   xmlns:inkscape="http://www.inkscape.org/namespaces/inkscape"
   version="1.1"
   id="svg2"
   viewBox="0 0 400 400"
   height="400"
   width="400"
   inkscape:version="0.91 r13725"
   sodipodi:docname="Logo_1.svg">
  <sodipodi:namedview
     pagecolor="#ffffff"
     bordercolor="#666666"
     borderopacity="1"
     objecttolerance="10"
     gridtolerance="10"
     guidetolerance="10"
     inkscape:pageopacity="0"
     inkscape:pageshadow="2"
     inkscape:window-width="1280"
     inkscape:window-height="746"
     id="namedview10"
     showgrid="false"
     showguides="false"
     inkscape:zoom="0.2085965"
     inkscape:cx="151.30309"
     inkscape:cy="127.82676"
     inkscape:window-x="0"
     inkscape:window-y="25"
     inkscape:window-maximized="1"
     inkscape:current-layer="svg2" />
  <defs
     id="defs4" />
  <metadata
     id="metadata7">
    <rdf:RDF>
      <cc:Work
         rdf:about="">
        <dc:format>image/svg+xml</dc:format>
        <dc:type
           rdf:resource="http://purl.org/dc/dcmitype/StillImage" />
        <dc:title />
      </cc:Work>
    </rdf:RDF>
  </metadata>
  <g
     id="g4165">
    <g
       id="g4160">
      <path
         inkscape:connector-curvature="0"
         style="opacity:1;fill:#03a9f4;fill-opacity:1;stroke:none;stroke-width:12.81700039;stroke-miterlimit:4;stroke-dasharray:none;stroke-opacity:1"
         d="m 53.538105,-2e-5 292.923785,0 C 376.12201,-2e-5 400,23.87798 400,53.53809 l 0,292.92379 C 400,376.122 376.12201,400 346.46189,400 L 53.538105,400 C 23.877995,400 0,376.122 0,346.46188 L 0,53.53809 C 0,23.87798 23.877995,-2e-5 53.538105,-2e-5 Z"
         id="rect3336" />
      <path
         id="path4143"
         style="font-style:normal;font-variant:normal;font-weight:normal;font-stretch:normal;font-size:medium;line-height:125%;font-family:'Indie Flower';-inkscape-font-specification:'Indie Flower';letter-spacing:0px;word-spacing:0px;fill:#ffab00;fill-opacity:1;stroke:none;stroke-width:1px;stroke-linecap:butt;stroke-linejoin:miter;stroke-opacity:1"
         d="m 32,210.22651 q 0,-12.45871 4.056787,-25.85182 4.056786,-13.70457 11.234177,-27.09768 7.177392,-13.39311 16.851267,-25.54035 9.985936,-12.14724 21.844235,-21.49128 11.858298,-9.34402 24.964844,-14.950434 13.10653,-5.294954 26.21308,-5.294954 7.48944,0 11.23417,5.606417 3.74473,5.606421 3.74473,12.458711 0,4.04908 -1.5603,9.34403 -1.5603,5.29494 -4.68091,10.5899 -3.12061,4.98348 -7.17739,8.72109 -3.74473,3.42614 -8.42564,3.42614 0,-3.11467 0.93618,-5.91788 0.93619,-3.11468 2.49649,-5.60642 1.56031,-2.80321 2.49649,-5.60641 0.93618,-2.80322 0.93618,-6.22936 0,-4.36055 -3.74473,-4.98349 -3.43266,-0.9344 -6.86533,-0.9344 -0.62412,0 -2.49649,0 -1.24823,0 -1.87236,0 -14.35478,5.60642 -28.085442,14.95045 -13.730661,9.03257 -24.340718,21.1798 -10.610057,11.83578 -16.851267,26.47476 -6.24121,14.32751 -6.24121,30.8353 0,10.5899 1.872364,23.36007 2.184422,12.45871 7.17739,23.36008 4.992968,10.5899 13.418602,17.75365 8.737693,7.16376 21.532174,7.16376 10.610057,0 20.908057,-1.8688 10.61005,-2.18028 20.90805,-4.36056 10.61005,-2.49174 20.90805,-4.36054 10.61006,-1.86881 21.22011,-1.86881 2.49649,0 4.99298,0.62294 2.49648,0.62294 2.49648,3.73761 0,1.55734 -1.87237,4.04908 -1.87236,2.18028 -4.68091,4.36055 -2.80854,2.18027 -5.30502,3.42614 -2.49648,1.24588 -3.1206,1.55734 l -72.08598,15.26192 q -0.624122,0 -2.808544,0 -1.872364,0.31147 -3.120606,0.31147 -10.297996,0 -18.723629,-4.04909 -8.113573,-4.36054 -14.666844,-10.90136 -6.24121,-6.85229 -10.922117,-15.57339 -4.368847,-9.03255 -7.489451,-18.68806 -2.808545,-9.6555 -4.056787,-19.31099 Q 32,218.63614 32,210.22651 Z"
         inkscape:connector-curvature="0" />
      <path
         id="path4145"
         style="font-style:normal;font-variant:normal;font-weight:normal;font-stretch:normal;font-size:medium;line-height:125%;font-family:'Indie Flower';-inkscape-font-specification:'Indie Flower';letter-spacing:0px;word-spacing:0px;fill:#ffab00;fill-opacity:1;stroke:none;stroke-width:1px;stroke-linecap:butt;stroke-linejoin:miter;stroke-opacity:1"
         d="m 252.62677,227.35724 q 2.18442,14.01604 4.99297,25.85181 3.1206,11.52431 4.6809,20.2454 1.56031,8.72109 0.93618,14.01605 -0.62412,5.29494 -6.24121,6.54082 -0.62412,1.8688 -2.49648,-2.18028 -1.87236,-4.04908 -4.36885,-12.14724 -2.49648,-8.40963 -5.30502,-19.93392 -2.80855,-11.52431 -5.61709,-24.29449 -2.49649,-13.08164 -4.68091,-26.78622 -2.18443,-13.70457 -3.74473,-26.16328 -1.24824,-12.45871 -1.24824,-22.73714 0,-10.27844 1.87236,-17.13073 3.74472,-2.8032 6.55327,-1.24586 3.12061,1.24586 4.68091,4.36054 1.87236,3.11468 2.49648,7.16376 0,4.04908 -0.62412,7.47523 0.31207,1.24587 0.93618,4.67201 0.93619,3.42614 1.87237,7.47522 0.93618,3.73762 1.87236,7.16376 0.93618,3.42615 1.5603,4.67201 4.36885,-0.62292 12.79448,-1.55734 8.73769,-1.24586 18.72363,-3.11467 9.98594,-2.18027 20.28394,-4.98348 10.61005,-2.80321 19.03569,-6.54082 8.42562,-3.73762 13.73066,-8.7211 5.61708,-4.98349 5.61708,-11.21283 0,-0.62294 -0.31205,-1.55734 l 0,-0.93441 q -8.7377,-9.96696 -17.78746,-16.19631 -9.04975,-6.22936 -19.34774,-9.03257 -9.98594,-3.11467 -21.22012,-4.04908 -11.23417,-0.9344 -24.02865,-0.9344 -9.36182,0 -19.65981,0.31147 -10.298,0 -19.03569,2.49174 -8.42564,2.49174 -14.04273,9.03256 -5.61709,6.54082 -5.61709,18.99953 -2.80855,0 -4.99296,-1.8688 -2.18443,-1.86882 -3.74473,-4.36056 -1.5603,-2.8032 -2.49648,-5.60641 -0.93618,-3.11468 -0.93618,-5.29495 0,-4.36055 1.87236,-8.09816 1.87236,-4.04908 4.99296,-7.16376 3.12061,-3.11468 6.86534,-5.60642 3.74472,-2.8032 7.48944,-4.67201 9.98594,-1.86881 17.47539,-3.11468 7.80151,-1.245866 14.66685,-1.868803 6.86533,-0.934402 13.73066,-0.934402 7.17739,-0.311473 15.91508,-0.311473 8.73769,0 18.41158,1.557338 9.67387,1.24588 19.6598,4.04908 9.98594,2.80321 18.72363,7.47523 9.04976,4.36054 15.91509,10.90137 7.17739,6.22935 11.23417,14.63897 4.0568,8.09816 4.0568,18.37659 0,9.03257 -5.6171,15.88486 -5.61709,6.85229 -14.9789,11.83578 -9.36181,4.98348 -20.90805,8.40962 -11.23418,3.42615 -22.78042,6.22935 -11.23418,2.49174 -21.22011,4.36055 -9.98594,2.49174 -16.22715,4.36055 15.60303,21.49126 30.89399,36.44171 15.29096,14.95045 28.70956,25.22888 13.4186,10.27844 24.34072,16.81926 10.92212,6.22935 17.78746,10.5899 6.86532,4.36055 8.73769,6.8523 1.87236,2.49174 -2.80855,5.60641 -3.43266,4.36054 -11.23417,2.18027 -7.80152,-2.18027 -18.09951,-8.7211 -9.98594,-6.22935 -21.53218,-15.57337 -11.54624,-9.65551 -22.78041,-19.93394 -11.23418,-10.27843 -21.53218,-20.24539 -9.98594,-9.96697 -16.85126,-17.44219 z"
         inkscape:connector-curvature="0" />
    </g>
  </g>
  <g
     id="g4189"
     inkscape:export-xdpi="499"
     inkscape:export-ydpi="499"
     transform="translate(79.661017,-445.76271)">
    <rect
       ry="9.5309477"
       y="340"
       x="0"
       height="60"
       width="90"
       id="rect3352"
       style="opacity:1;fill:#03a9f4;fill-opacity:1;stroke:none;stroke-width:12.81700039;stroke-miterlimit:4;stroke-dasharray:none;stroke-opacity:1" />
    <text
       sodipodi:linespacing="125%"
       id="text3348"
       y="371.96216"
       x="5.3595624"
       style="font-style:normal;font-weight:normal;font-size:24.65348244px;line-height:125%;font-family:sans-serif;letter-spacing:0px;word-spacing:0px;fill:#ffab00;fill-opacity:1;stroke:none;stroke-width:1px;stroke-linecap:butt;stroke-linejoin:miter;stroke-opacity:1"
       xml:space="preserve"><tspan
         style="font-style:normal;font-variant:normal;font-weight:normal;font-stretch:normal;font-family:'Indie Flower';-inkscape-font-specification:'Indie Flower';fill:#ffab00;fill-opacity:1"
         y="371.96216"
         x="5.3595624"
         id="tspan3350"
         sodipodi:role="line">CityRal.li</tspan></text>
  </g>
</svg>
